<svg id="gray" xmlns="http://www.w3.org/2000/svg" viewBox="0 0 260.67 304.06"><defs><style>.cls-1{fill:#605e5d;}</style></defs><title>logo-gray</title><path class="cls-1" d="M196.28,165.57c2.33,83.85-40.43,130.27-47.81,132.62,27.22-68.41,2.62-142.26-3.64-153.46l-.1,0,.08-.07,0,0c46.63-9.38,89.37-34.21,128.46-73.58v-1h0L184.18,18.67a82.56,82.56,0,0,0-82.76.12l-79,45.89a18.11,18.11,0,0,0-9,15.53l-.54,96.58C22.93,188,73.07,238.08,123,251.28c2.63-12.81,3.08-105.47-88.53-141a1.68,1.68,0,0,1-1.09-1.38c-.62-5.09-3.17-27.59.5-27.3,5.62-9.56,155.62,14,109.84,213.47a1.73,1.73,0,0,1-2.46,1.1C125.17,288.05,15,234,13.08,224.62c-.15-.73-.29-1.6-.42-2.6l0,5.47a20,20,0,0,0,10,17.37l111.61,64.43a17.74,17.74,0,0,0,17.78,0l112-65.1a17.71,17.71,0,0,0,8.81-15.26l.35-121.54C247.91,147.73,197.21,170.3,196.28,165.57ZM79.5,79.53a5.65,5.65,0,0,1-5.59.59c-6.86-3.21-26.54-8.22-37.2-5.68-2.27.54,7-6.25,9-7.5,80.26-51,107.8-54.35,190.35-2.34,1.78,1.12,14,13.34,5.65,10.34C217.45,66.19,140.47,37.93,79.5,79.53Z" transform="translate(-12.63 -7.61)"/></svg>