<svg id="cleaned-up" xmlns="http://www.w3.org/2000/svg" viewBox="0 0 260.67 304.04"><title>personal_brand_logo_black</title><path d="M366.36,389.8c2.33,83.84-40.42,130.26-47.8,132.61,27.22-68.4,2.61-142.25-3.65-153.45l-.1,0,.08-.06,0,0c46.64-9.38,89.38-34.22,128.46-73.59v-1h0l-89.07-51.43a82.66,82.66,0,0,0-82.85.12l-78.93,45.87a18,18,0,0,0-9,15.52L183,401c10,11.23,60.16,61.28,110.06,74.48,2.63-12.81,3.08-105.47-88.54-141a1.73,1.73,0,0,1-1.09-1.38c-.62-5.1-3.16-27.59.5-27.31,5.63-9.56,155.63,14.06,109.85,213.48a1.72,1.72,0,0,1-2.46,1.09c-16.07-8.14-126.2-62.19-128.16-71.57-.15-.72-.29-1.6-.42-2.6l0,5.48a20,20,0,0,0,10,17.36l111.61,64.44a17.71,17.71,0,0,0,17.78,0l112-65.1a17.71,17.71,0,0,0,8.81-15.26l.34-121.54C418,372,367.3,394.52,366.36,389.8Zm-116.77-86a5.67,5.67,0,0,1-5.59.58c-6.86-3.2-26.55-8.22-37.2-5.68-2.27.54,7-6.25,9-7.5,80.26-51,107.8-54.34,190.34-2.34,1.78,1.12,14,13.34,5.66,10.34C387.53,290.42,310.56,262.16,249.59,303.76Z" transform="translate(-182.71 -231.85)"/></svg>