<svg id="Layer_8" data-name="Layer 8" xmlns="http://www.w3.org/2000/svg" viewBox="0 0 260.67 304.06"><defs><style>.cls-1{fill:#fff;}</style></defs><title>personal_brand_logo_white</title><path class="cls-1" d="M359,406.9c2.33,83.85-40.43,130.27-47.81,132.62,27.22-68.4,2.61-142.25-3.64-153.45l-.11,0,.08-.06,0,0c46.63-9.38,89.37-34.22,128.46-73.59v-1h0L346.84,260a82.57,82.57,0,0,0-82.75.12l-79,45.9a18,18,0,0,0-9,15.52l-.54,96.59c10,11.23,60.16,61.28,110.06,74.48,2.63-12.81,3.08-105.47-88.54-141a1.73,1.73,0,0,1-1.09-1.39c-.62-5.09-3.16-27.58.5-27.3,5.63-9.56,155.63,14.06,109.85,213.48a1.72,1.72,0,0,1-2.46,1.09c-16.07-8.14-126.2-62.19-128.16-71.57-.15-.72-.29-1.6-.41-2.6l0,5.48a20,20,0,0,0,10,17.36L296.9,550.63a17.74,17.74,0,0,0,17.77,0l112-65.1a17.71,17.71,0,0,0,8.81-15.26l.34-121.54C410.58,389.06,359.88,411.63,359,406.9Zm-116.78-86a5.67,5.67,0,0,1-5.59.58c-6.86-3.21-26.55-8.22-37.2-5.68-2.27.54,7-6.25,9-7.5,80.26-51,107.8-54.34,190.34-2.34,1.79,1.12,14,13.34,5.66,10.34C380.11,307.53,303.14,279.26,242.17,320.87Z" transform="translate(-175.29 -248.94)"/></svg>